<svg xmlns="http://www.w3.org/2000/svg" viewBox="0 0 100 100" width="100" height="100">
  <circle cx="50" cy="50" r="48" fill="#ffffff" stroke="#333" stroke-width="2"/>
  <path d="M50 10 L60 35 L85 35 L65 50 L75 75 L50 60 L25 75 L35 50 L15 35 L40 35 Z" fill="#1a1a2e"/>
  <path d="M50 10 L50 60 M60 35 L85 35 M65 50 L75 75 M35 50 L25 75 M15 35 L40 35 M60 35 L65 50 M85 35 L75 75 M15 35 L25 75 M40 35 L35 50" stroke="#667eea" stroke-width="1" fill="none"/>
  <circle cx="50" cy="50" r="45" fill="none" stroke="#667eea" stroke-width="1" opacity="0.3"/>
</svg>